<svg width="41" height="41" viewBox="0 0 41 41" fill="none" xmlns="http://www.w3.org/2000/svg">
<g clip-path="url(#clip0_1119_22048)">
<path d="M10.5048 21.0067C10.4369 20.9892 10.4369 20.8927 10.5048 20.8751L16.5518 19.3141C17.7483 19.0053 18.6826 18.0709 18.9915 16.8744L20.5525 10.8274C20.5701 10.7595 20.6665 10.7595 20.6841 10.8274L22.2451 16.8745C22.5539 18.0709 23.4883 19.0053 24.6848 19.3141L30.7318 20.8751C30.7997 20.8927 30.7997 20.9892 30.7318 21.0067L24.6848 22.5677C23.4883 22.8766 22.5539 23.8109 22.2451 25.0074L20.6841 31.0544C20.6665 31.1223 20.5701 31.1223 20.5525 31.0544L18.9915 25.0074C18.6826 23.8109 17.7483 22.8766 16.5518 22.5677L10.5048 21.0067Z" fill="white"/>
<g clip-path="url(#clip1_1119_22048)">
<path d="M24.6422 13.5586C24.619 13.5526 24.619 13.5197 24.6422 13.5137L26.7058 12.981C27.1141 12.8756 27.433 12.5567 27.5384 12.1484L28.0711 10.0848C28.0771 10.0616 28.11 10.0616 28.116 10.0848L28.6487 12.1484C28.7541 12.5567 29.073 12.8756 29.4813 12.981L31.5449 13.5137C31.5681 13.5197 31.5681 13.5526 31.5449 13.5586L29.4813 14.0913C29.073 14.1967 28.7541 14.5155 28.6487 14.9239L28.116 16.9875C28.11 17.0106 28.0771 17.0106 28.0711 16.9875L27.5384 14.9239C27.433 14.5155 27.1141 14.1967 26.7058 14.0913L24.6422 13.5586Z" fill="white"/>
</g>
</g>
<defs>
<clipPath id="clip0_1119_22048">
<rect width="24" height="24" fill="white" transform="translate(8.25 8.94092)"/>
</clipPath>
<clipPath id="clip1_1119_22048">
<rect width="8.19023" height="8.19023" fill="white" transform="translate(23.8717 9.44116)"/>
</clipPath>
</defs>
</svg>
