<svg width="40" height="41" viewBox="0 0 40 41" fill="none" xmlns="http://www.w3.org/2000/svg">
<path d="M12 13.9409C12 13.3886 12.4477 12.9409 13 12.9409H28C28.5523 12.9409 29 13.3886 29 13.9409V14.8159C29 15.3682 28.5523 15.8159 28 15.8159H13C12.4477 15.8159 12 15.3682 12 14.8159V13.9409ZM12 20.5034C12 19.9511 12.4477 19.5034 13 19.5034H21.3333C21.8856 19.5034 22.3333 19.9511 22.3333 20.5034V21.3784C22.3333 21.9307 21.8856 22.3784 21.3333 22.3784H13C12.4477 22.3784 12 21.9307 12 21.3784V20.5034ZM12 27.0659C12 26.5136 12.4477 26.0659 13 26.0659H18C18.5523 26.0659 19 26.5136 19 27.0659V27.9409C19 28.4932 18.5523 28.9409 18 28.9409H13C12.4477 28.9409 12 28.4932 12 27.9409V27.0659Z" fill="white"/>
</svg>
