<svg width="65" height="65" viewBox="0 0 65 65" fill="none" xmlns="http://www.w3.org/2000/svg">
<circle cx="32.0039" cy="32.6692" r="32" fill="white"/>
<path d="M22.0039 25.6692C22.0039 24.0123 23.3471 22.6692 25.0039 22.6692H26.0039C27.6608 22.6692 29.0039 24.0123 29.0039 25.6692V41.6692C29.0039 43.326 27.6608 44.6692 26.0039 44.6692H25.0039C23.3471 44.6692 22.0039 43.326 22.0039 41.6692V25.6692Z" fill="#333333"/>
<path d="M35.0039 25.6692C35.0039 24.0123 36.3471 22.6692 38.0039 22.6692H39.0039C40.6608 22.6692 42.0039 24.0123 42.0039 25.6692V41.6692C42.0039 43.326 40.6608 44.6692 39.0039 44.6692H38.0039C36.3471 44.6692 35.0039 43.326 35.0039 41.6692V25.6692Z" fill="#333333"/>
</svg>
