<svg width="41" height="41" viewBox="0 0 41 41" fill="none" xmlns="http://www.w3.org/2000/svg">
<path d="M19.7461 8.66923C21.3236 8.6653 22.8862 8.97427 24.3435 9.57826C25.8008 10.1823 27.1239 11.0693 28.2361 12.188C29.1448 13.108 29.9523 13.993 30.7461 14.9192V12.6692C30.7461 12.404 30.8515 12.1497 31.039 11.9621C31.2265 11.7746 31.4809 11.6692 31.7461 11.6692C32.0113 11.6692 32.2657 11.7746 32.4532 11.9621C32.6407 12.1497 32.7461 12.404 32.7461 12.6692V17.6692C32.7461 17.9344 32.6407 18.1888 32.4532 18.3763C32.2657 18.5639 32.0113 18.6692 31.7461 18.6692H26.7461C26.4809 18.6692 26.2265 18.5639 26.039 18.3763C25.8515 18.1888 25.7461 17.9344 25.7461 17.6692C25.7461 17.404 25.8515 17.1497 26.039 16.9621C26.2265 16.7746 26.4809 16.6692 26.7461 16.6692H29.6211C28.7273 15.6167 27.8373 14.6255 26.8223 13.598C25.4325 12.2082 23.664 11.2587 21.7376 10.8683C19.8113 10.4779 17.8126 10.6638 15.9914 11.4028C14.1701 12.1418 12.607 13.4012 11.4974 15.0235C10.3877 16.6458 9.78077 18.5591 9.75234 20.5244C9.72391 22.4897 10.2753 24.4198 11.3375 26.0735C12.3997 27.7272 13.9258 29.0313 15.7249 29.8226C17.524 30.614 19.5165 30.8577 21.4533 30.5232C23.3901 30.1886 25.1854 29.2908 26.6148 27.9417C26.7104 27.8514 26.8228 27.7809 26.9456 27.734C27.0684 27.6872 27.1992 27.665 27.3306 27.6687C27.462 27.6724 27.5914 27.7019 27.7114 27.7557C27.8313 27.8094 27.9396 27.8862 28.0298 27.9817C28.1201 28.0773 28.1907 28.1896 28.2376 28.3125C28.2844 28.4353 28.3066 28.5661 28.3029 28.6975C28.2992 28.8289 28.2696 28.9583 28.2159 29.0783C28.1622 29.1982 28.0854 29.3064 27.9898 29.3967C26.5655 30.7408 24.8339 31.7159 22.9461 32.2368C21.0583 32.7578 19.0716 32.8088 17.1596 32.3854C15.2475 31.962 13.4681 31.0771 11.9767 29.8079C10.4853 28.5387 9.32719 26.9237 8.60344 25.104C7.8797 23.2843 7.61232 21.315 7.82464 19.3682C8.03696 17.4214 8.72254 15.5561 9.82153 13.9351C10.9205 12.3142 12.3995 10.9869 14.1295 10.069C15.8594 9.15106 17.7877 8.6705 19.7461 8.66923Z" fill="white"/>
<path d="M19.9277 20.7844L18.5801 20.4622L19.0664 16.1379H23.8594V17.5032H20.4551L20.2441 19.3958C20.3574 19.3293 20.5293 19.259 20.7598 19.1848C20.9902 19.1067 21.248 19.0676 21.5332 19.0676C21.9473 19.0676 22.3145 19.1321 22.6348 19.261C22.9551 19.3899 23.2266 19.5774 23.4492 19.8235C23.6758 20.0696 23.8477 20.3704 23.9648 20.7258C24.082 21.0813 24.1406 21.4836 24.1406 21.9329C24.1406 22.3118 24.082 22.6731 23.9648 23.0168C23.8477 23.3567 23.6699 23.6614 23.4316 23.9309C23.1934 24.1965 22.8945 24.4055 22.5352 24.5579C22.1758 24.7102 21.75 24.7864 21.2578 24.7864C20.8906 24.7864 20.5352 24.7317 20.1914 24.6223C19.8516 24.5129 19.5449 24.3508 19.2715 24.136C19.002 23.9211 18.7852 23.6614 18.6211 23.3567C18.4609 23.0481 18.377 22.6965 18.3691 22.302H20.0449C20.0684 22.5442 20.1309 22.7532 20.2324 22.929C20.3379 23.1008 20.4766 23.2336 20.6484 23.3274C20.8203 23.4211 21.0215 23.468 21.252 23.468C21.4668 23.468 21.6504 23.427 21.8027 23.345C21.9551 23.2629 22.0781 23.1497 22.1719 23.0051C22.2656 22.8567 22.334 22.6848 22.377 22.4895C22.4238 22.2903 22.4473 22.0754 22.4473 21.845C22.4473 21.6145 22.4199 21.4055 22.3652 21.218C22.3105 21.0305 22.2266 20.8684 22.1133 20.7317C22 20.595 21.8555 20.4895 21.6797 20.4153C21.5078 20.3411 21.3066 20.304 21.0762 20.304C20.7637 20.304 20.5215 20.3528 20.3496 20.4504C20.1816 20.5481 20.041 20.6594 19.9277 20.7844Z" fill="white"/>
<path d="M17.3564 19.8972V20.7551H13.9453V19.8972H17.3564ZM16.1191 18.5471V22.1702H15.186V18.5471H16.1191Z" fill="white"/>
</svg>
