<svg width="41" height="41" viewBox="0 0 41 41" fill="none" xmlns="http://www.w3.org/2000/svg">
<g clip-path="url(#clip0_1119_22041)">
<path d="M28.1235 20.7176L18.4985 31.0301C18.4361 31.1006 18.3594 31.1571 18.2734 31.1956C18.1874 31.2341 18.0942 31.2539 18.0001 31.2535C17.8895 31.2524 17.7808 31.2259 17.6821 31.1762C17.5512 31.1055 17.4463 30.9948 17.3829 30.8603C17.3195 30.7257 17.3009 30.5744 17.3297 30.4285L18.5844 24.1293L13.6344 22.273C13.5287 22.232 13.4344 22.166 13.3596 22.0808C13.2848 21.9955 13.2316 21.8934 13.2047 21.7832C13.1786 21.6726 13.1806 21.5572 13.2107 21.4476C13.2407 21.338 13.2977 21.2377 13.3766 21.1558L23.0016 10.8433C23.1044 10.7381 23.2382 10.6685 23.3834 10.6449C23.5286 10.6213 23.6775 10.6449 23.8083 10.7122C23.9391 10.7795 24.0449 10.887 24.11 11.0189C24.1752 11.1508 24.1963 11.3001 24.1704 11.4449L22.9157 17.7527L27.8657 19.609C27.9719 19.6476 28.0669 19.7121 28.1419 19.7967C28.2169 19.8812 28.2696 19.9832 28.2953 20.0933C28.3209 20.2035 28.3186 20.3182 28.2886 20.4272C28.2586 20.5363 28.2018 20.636 28.1235 20.7176Z" fill="white"/>
</g>
<defs>
<clipPath id="clip0_1119_22041">
<rect width="22" height="22" fill="white" transform="translate(9.75 9.94092)"/>
</clipPath>
</defs>
</svg>
