<svg width="9" height="9" viewBox="0 0 9 9" fill="none" xmlns="http://www.w3.org/2000/svg">
<g clip-path="url(#clip0_516_20962)">
<path d="M4.81051 1.39648L6.69718 3.28315C7.07029 3.65602 7.32444 4.13117 7.42748 4.6485C7.53051 5.16583 7.4778 5.7021 7.27602 6.18947C7.07424 6.67684 6.73245 7.09342 6.29388 7.38652C5.85531 7.67961 5.33967 7.83605 4.81218 7.83605C4.28468 7.83605 3.76904 7.67961 3.33047 7.38652C2.8919 7.09342 2.55011 6.67684 2.34833 6.18947C2.14655 5.7021 2.09384 5.16583 2.19688 4.6485C2.29991 4.13117 2.55406 3.65602 2.92718 3.28315L4.81051 1.39648Z" stroke="white" stroke-width="1.25989" stroke-linecap="round" stroke-linejoin="round"/>
<path d="M7.81055 4.9C7.81055 6.33594 6.4674 7.5 4.81055 7.5C3.15369 7.5 1.81055 6.33594 1.81055 4.9C1.81055 3.46406 3.15369 1.5 4.81055 1.5C6.4674 1.5 7.81055 3.46406 7.81055 4.9Z" fill="white"/>
</g>
<defs>
<clipPath id="clip0_516_20962">
<rect width="8" height="8" fill="white" transform="translate(0.810547 0.5)"/>
</clipPath>
</defs>
</svg>
